PathFileType	4	(X/Y/Z)	C:\Users\Basilio\Documents\Thesis Gigler\squatting_fais\c3dfiles\019\SLS_front_pre1\markers_experimental.trc
DataRate	CameraRate	NumFrames	NumMarkers	Units	OrigDataRate	OrigDataStartFrame	OrigNumFrames
200.000000	200.000000	4	59	mm	200.000000	815	1631
Frame#	Time	LBHD			RBHD			C7			T10			CLAV			LSHO			LUUPA			LMUPA			LDUPA			LLEP			LMEP			LRAD			LUL			LRFIN			RSHO			RUPA1			RMUPA			RDUPA			RLEP			RRAD			RUL			RUFIN			LASI			RASI			USACR			LSACR			RSACR			LTHI1			LTHI2			LTHI3			LTHI4			LLFC			LTIB1			LTIB2			LTIB3			LTIB4			LLMAL			LMMAL			LHEE			LMT1			LMT2			LMT5			RTHI			RTHI3			RTHI4			RLFC			RTIB1			RTIB2			RTIB3			RTIB4			RLMAL			RMMAL			RHEE			RMT1			RMT2			RMT5			FHD			RTHI2			RMEP			
		X1	Y1	Z1	X2	Y2	Z2	X3	Y3	Z3	X4	Y4	Z4	X5	Y5	Z5	X6	Y6	Z6	X7	Y7	Z7	X8	Y8	Z8	X9	Y9	Z9	X10	Y10	Z10	X11	Y11	Z11	X12	Y12	Z12	X13	Y13	Z13	X14	Y14	Z14	X15	Y15	Z15	X16	Y16	Z16	X17	Y17	Z17	X18	Y18	Z18	X19	Y19	Z19	X20	Y20	Z20	X21	Y21	Z21	X22	Y22	Z22	X23	Y23	Z23	X24	Y24	Z24	X25	Y25	Z25	X26	Y26	Z26	X27	Y27	Z27	X28	Y28	Z28	X29	Y29	Z29	X30	Y30	Z30	X31	Y31	Z31	X32	Y32	Z32	X33	Y33	Z33	X34	Y34	Z34	X35	Y35	Z35	X36	Y36	Z36	X37	Y37	Z37	X38	Y38	Z38	X39	Y39	Z39	X40	Y40	Z40	X41	Y41	Z41	X42	Y42	Z42	X43	Y43	Z43	X44	Y44	Z44	X45	Y45	Z45	X46	Y46	Z46	X47	Y47	Z47	X48	Y48	Z48	X49	Y49	Z49	X50	Y50	Z50	X51	Y51	Z51	X52	Y52	Z52	X53	Y53	Z53	X54	Y54	Z54	X55	Y55	Z55	X56	Y56	Z56	X57	Y57	Z57	X58	Y58	Z58	X59	Y59	Z59	

816	4.075	-280.9212341308594	1305.43798828125	-783.4224243164065	-288.9056701660157	1298.223754882813	-644.0496215820314	-343.1558227539063	1168.030517578125	-701.7448120117189	-514.9612426757814	941.7564697265627	-711.6964111328126	-236.3680419921876	1075.025390625	-709.2022705078126	-257.5843811035157	1164.039672851563	-823.8909912109377	-140.7892150878907	1138.06005859375	-877.930603027344	-112.2884368896485	1123.083374023438	-834.4328613281252	-75.85111236572267	1130.384521484375	-879.244079589844	-4.561978340148927	1104.52783203125	-914.7024536132815	-9.485466957092287	1044.834716796875	-910.8148193359377	240.3266754150391	1077.786254882813	-819.1677856445315	241.1609344482422	1092.73876953125	-885.1148071289065	309.6105651855469	1094.000366210938	-810.3367919921877	-255.7870788574219	1151.687744140625	-600.8163452148439	-146.354965209961	1103.674682617188	-490.1455078125001	-122.3159255981446	1123.644287109375	-528.2243041992189	-77.34388732910158	1098.377075195313	-489.9955139160157	0.2394935935735703	1094.823608398438	-503.3558959960939	227.7214050292969	1098.32666015625	-616.3956298828126	247.0095977783204	1111.808471679688	-553.9001464843751	309.8000793457032	1114.301391601563	-632.7427978515626	-478.8067016601564	722.8673706054689	-845.790710449219	-461.4196777343751	705.2032470703126	-641.1256713867189	-594.5783081054689	814.3985595703127	-729.0180664062501	-614.5535278320314	787.9746704101565	-755.4669799804689	-610.3220825195314	785.4998779296877	-699.3980102539064	-408.4082336425782	588.3320312500001	-950.3469238281252	-323.4706420898438	600.8546142578126	-955.0947875976565	-310.0456542968751	643.4702148437501	-935.9395141601565	-279.6315002441407	558.0361328125001	-949.120544433594	-195.5765838623047	518.7531738281251	-931.720642089844	-85.74118041992189	423.4331665039064	-905.141784667969	-126.7461853027344	359.8569030761719	-951.8582153320315	-89.63070678710939	371.0174865722657	-931.3442993164065	-62.55873107910158	297.2863464355469	-893.765319824219	-84.0806121826172	152.2683410644532	-908.7740478515627	-63.22789382934572	168.08447265625	-830.092224121094	-138.3767547607422	109.2166061401367	-852.3122558593752	80.48229980468751	126.7077102661133	-846.3610839843752	79.03641510009767	122.4247360229492	-888.0006103515627	36.24251174926759	86.95503234863283	-934.448181152344	-414.8524169921876	584.4135742187501	-499.0804138183595	-366.8099670410157	621.8524169921876	-604.6586914062501	-313.1646423339844	534.6261596679689	-591.4813232421876	-205.3102722167969	436.3342590332032	-644.5838623046876	-217.0919799804688	282.1314697265626	-725.4159545898439	-290.3893127441407	222.5099487304688	-666.9439697265626	-263.2440185546876	207.7479095458985	-706.0209350585939	-297.1467895507813	185.754867553711	-748.5272827148439	-382.0438232421876	125.6910400390625	-699.1877441406251	-369.1195068359376	132.8044128417969	-778.059020996094	-455.4496154785157	104.9239654541016	-751.0202636718751	-258.1947937011719	54.88683700561525	-780.4751586914065	-249.0502319335938	54.54323959350587	-737.8873901367189	-290.8374938964844	50.34712982177736	-679.4567260742189	-154.1404724121094	1323.85302734375	-637.0654907226564	-373.3120117187501	591.0311889648439	-583.7257080078126	-8.508850097656252	1034.733032226563	-506.4879455566407	
817	4.08	-280.9468383789063	1304.773071289063	-783.554626464844	-288.7024841308594	1297.443603515625	-644.1749877929689	-342.8339538574219	1167.300537109375	-701.8088378906251	-514.9647216796876	941.1401367187502	-711.7220458984376	-236.4275512695313	1074.2763671875	-709.3162231445314	-257.2141723632813	1163.279541015625	-823.8362426757815	-140.6181793212891	1137.58349609375	-877.8572998046877	-117.6280288696289	1121.130493164063	-837.202819824219	-75.92201232910158	1129.800659179688	-879.2882080078127	-4.690722465515138	1103.771606445313	-914.883972167969	-9.281167030334474	1044.302368164063	-910.846862792969	240.363754272461	1077.480712890625	-819.0932617187502	241.4067687988282	1092.290893554688	-884.9677734375002	309.9053649902344	1093.447631835938	-810.1452636718752	-251.2250976562501	1153.957763671875	-599.4416503906251	-146.2682647705078	1103.262817382813	-490.1925048828126	-122.4497451782227	1123.259155273438	-528.4227294921876	-77.22932434082033	1097.874389648438	-489.9280395507814	0.3788376450538636	1094.393432617188	-503.4440002441407	227.7402801513672	1098.11474609375	-616.3963012695314	247.1360015869141	1111.58935546875	-553.9104003906251	310.1233215332032	1113.9482421875	-632.6390991210939	-478.9157714843751	722.3979492187501	-845.7874145507815	-461.4678039550782	704.8645629882814	-641.1956787109376	-594.7647094726564	813.7362060546877	-729.1069335937501	-615.1941528320314	787.750671386719	-755.3726196289064	-610.4593505859376	784.9361572265627	-699.2881469726564	-408.5032958984376	587.8097534179689	-950.2478637695315	-323.4448852539063	600.2902832031251	-955.007507324219	-310.1736450195313	643.0263061523439	-935.8714599609377	-279.5904235839844	557.5992431640626	-948.997009277344	-195.5751647949219	518.4193725585939	-931.5773925781252	-85.7186965942383	423.2056274414064	-904.9692382812502	-126.7229537963867	359.5375671386719	-951.6365356445315	-89.63240814208986	370.8041076660157	-931.107360839844	-62.44967269897462	297.0824890136719	-893.5062255859377	-83.9671096801758	152.0745544433594	-908.3792724609377	-62.97472381591798	167.8841400146485	-829.6889648437502	-138.1163482666016	108.9607543945313	-851.9151611328127	80.75157165527345	126.663330078125	-845.8620605468752	79.37132263183595	122.3034362792969	-887.5689697265627	36.58849334716798	86.66893768310548	-933.9298095703127	-414.9052734375001	584.2208862304689	-498.9597167968751	-366.7509765625001	621.5889892578126	-604.7401733398439	-313.0492858886719	534.5209960937501	-591.4909667968751	-205.1829833984376	436.2098083496095	-644.5805664062501	-216.9023132324219	281.9907226562501	-725.3237304687501	-290.3757934570313	222.4679412841797	-666.8284912109376	-263.1895141601563	207.6140594482422	-706.0040893554689	-297.1046752929688	185.6964569091797	-748.5032958984376	-382.1047058105469	125.6457977294922	-699.1633300781251	-369.0751953125001	132.8127899169922	-778.0388793945315	-455.2662048339845	104.967155456543	-751.0490112304689	-258.1851196289063	54.94802856445314	-780.4178466796877	-249.0652465820313	54.55640411376955	-737.8873291015626	-290.9098510742188	50.3832130432129	-679.4508056640626	-153.9742584228516	1322.982543945313	-637.1066284179689	-373.2959289550782	590.6597290039064	-583.8411254882814	-8.408384323120119	1034.233642578125	-506.4728393554689	
818	4.085	-280.8552246093751	1304.099853515625	-783.7371826171877	-288.5690917968751	1296.579467773438	-644.2745971679689	-342.3213500976563	1166.768188476563	-701.8101196289064	-515.0245361328126	940.625671386719	-711.7174682617189	-236.3306274414063	1073.59228515625	-709.3610229492189	-257.0974426269532	1162.6279296875	-823.8433227539065	-140.5273132324219	1137.078979492188	-877.809509277344	-111.8792495727539	1121.85888671875	-834.2439575195315	-75.54538726806642	1129.250366210938	-879.0090332031252	-4.168734073638917	1103.4658203125	-914.4763183593752	-9.040713310241701	1043.83544921875	-910.7977294921877	240.6485443115235	1076.997924804688	-818.8587036132815	241.6057739257813	1091.862670898438	-884.8358154296877	310.0677490234376	1093.010375976563	-810.0024414062502	-250.9618225097657	1153.24951171875	-599.5983886718751	-146.136474609375	1102.804931640625	-490.2215881347657	-122.2669754028321	1122.772583007813	-528.3854980468751	-77.16795349121095	1097.528198242188	-489.9950561523439	0.4577123224735261	1093.99853515625	-503.5106201171876	228.0304412841797	1097.827026367188	-616.3950195312501	247.1418151855469	1111.333129882813	-553.8908691406251	310.0617065429688	1113.845092773438	-632.7084960937501	-479.0501403808595	721.8524780273439	-845.7852172851565	-461.469696044922	704.4997558593751	-641.2143554687501	-594.8916015625001	813.1953735351565	-729.0490722656251	-615.5007934570314	787.2974243164065	-755.3652954101564	-610.4473876953126	784.3781738281252	-699.3323974609376	-408.5744934082032	587.2896728515626	-950.2274169921877	-323.4435424804688	599.8154296875001	-954.911315917969	-310.2714843750001	642.4672241210939	-935.8343505859377	-279.6600341796876	557.1707153320314	-948.924011230469	-195.6232910156251	518.0093994140626	-931.470397949219	-85.68441772460939	422.867889404297	-904.7666625976565	-126.5762405395508	359.1224365234376	-951.330261230469	-89.55442047119142	370.4357604980469	-930.890563964844	-62.38463211059572	296.8496398925782	-893.2012329101565	-83.63320159912111	151.8280334472657	-907.8037719726565	-62.71586990356447	167.662094116211	-829.2478637695315	-137.9146423339844	108.6775131225586	-851.374694824219	80.94992828369142	126.5351486206055	-845.5798339843752	79.58272552490236	122.1350021362305	-887.151794433594	36.72734069824219	86.47180175781251	-933.4163818359377	-414.9461364746095	584.0559692382814	-498.7892456054689	-366.8269958496094	621.2655029296876	-604.6773681640626	-312.9740295410157	534.2874755859376	-591.3978271484376	-204.9341278076172	436.1365051269532	-644.5822753906251	-216.8567199707032	281.9661254882813	-725.3659057617189	-290.3867187500001	222.4688415527344	-666.7786865234376	-263.1378479003907	207.6595306396485	-706.0305175781251	-297.0739440917969	185.7206726074219	-748.4781494140626	-382.0402221679688	125.6919021606446	-699.1047973632814	-369.1090393066407	132.8264923095703	-778.0162353515627	-455.4005126953126	104.9451217651367	-751.0102539062501	-258.1429443359376	54.92814254760744	-780.431579589844	-249.055160522461	54.52149581909181	-737.9835205078126	-290.8797302246094	50.38880538940431	-679.4400634765626	-153.780990600586	1322.244873046875	-637.2662353515626	-373.4006958007813	590.1358642578126	-584.4160766601564	-8.254982948303224	1033.872436523438	-506.4558105468751	
819	4.09	-280.7197570800782	1303.42822265625	-783.7229614257815	-288.3732604980469	1295.947998046875	-644.2348022460939	-342.2549743652344	1166.11279296875	-701.8913574218751	-515.0866088867189	940.1365356445315	-711.6780395507814	-236.2464904785157	1072.877319335938	-709.3986816406251	-257.0675048828126	1162.015747070313	-823.7753906250002	-140.4134521484375	1136.496459960938	-877.7036132812502	-112.1179504394532	1121.096557617188	-834.4273071289065	-75.31143188476564	1128.71435546875	-878.846130371094	-3.998535871505738	1102.978759765625	-914.3585205078127	-8.944197654724123	1043.321655273438	-910.6718750000002	240.7145080566407	1076.619506835938	-818.8015136718752	242.2082672119141	1091.474243164063	-884.2676391601565	310.3047180175782	1092.499267578125	-809.8229980468752	-250.9644622802735	1152.711791992188	-599.6193237304689	-146.0049438476563	1102.25830078125	-490.3049621582032	-122.2830276489258	1122.239501953125	-528.5251464843751	-77.0422821044922	1097.108032226563	-490.0218505859376	0.5627377629280091	1093.563598632813	-503.4237060546876	228.177719116211	1097.563598632813	-616.2830200195314	247.3001098632813	1111.090209960938	-553.8510131835939	309.3698730468751	1114.178588867188	-633.7578735351564	-479.2171630859376	721.2373046875001	-845.8693847656252	-461.6731567382814	704.0985107421876	-641.2012329101564	-595.0084838867189	812.7702636718752	-729.0318603515626	-615.4462890625001	786.5136718750002	-755.4559326171876	-610.4810180664064	783.7519531250002	-699.4057006835939	-408.6560363769532	586.8575439453126	-950.157165527344	-323.5336914062501	599.3676147460939	-954.8291015625002	-310.2658996582032	642.0000000000001	-935.730651855469	-279.6849365234376	556.7518920898439	-948.8962402343752	-195.5247039794922	517.6125488281251	-931.3070068359377	-85.6269989013672	422.7140197753907	-904.5703125000002	-126.5216903686524	358.8034057617188	-951.0316162109377	-89.44616699218751	370.1129455566407	-930.622741699219	-62.20596313476564	296.5683898925782	-892.8891601562502	-83.49644470214845	151.5669555664063	-907.4697265625002	-62.60985565185548	167.5236358642578	-828.865417480469	-137.67041015625	108.433837890625	-850.9783325195315	81.1037063598633	126.3399124145508	-845.0153808593752	79.77813720703126	121.8873367309571	-886.7117919921877	37.04736328125001	86.14460754394533	-932.8819580078127	-414.9838256835939	583.8439331054689	-498.7224426269532	-366.8454589843751	620.9757690429689	-604.6615600585939	-312.8469848632813	534.0969238281251	-591.3276367187501	-204.8388214111329	436.0805664062501	-644.5966796875001	-216.8005065917969	281.9720458984376	-725.3320922851564	-290.2588806152344	222.4201202392579	-666.7271118164064	-263.0373229980469	207.5032958984376	-705.9614257812501	-297.0256652832032	185.69091796875	-748.4735107421876	-382.1027832031251	125.6686248779297	-699.1356811523439	-369.0503234863282	132.8070831298828	-778.0023193359377	-455.4627685546876	104.8692016601563	-750.9707031250001	-258.2173767089844	55.00561523437501	-780.4284667968752	-249.0626983642579	54.55417251586915	-737.8872680664064	-290.9096374511719	50.38331604003908	-679.4201660156251	-153.5317077636719	1321.572631835938	-637.3031616210939	-373.4843750000001	589.6556396484376	-585.0337524414064	-8.138903617858888	1033.374755859375	-506.546844482422	
